<svg xmlns="http://www.w3.org/2000/svg" width="190" height="34" viewBox="0 0 190 34">
  <defs>
    <style>
      .cls-1 {
        fill: #5ef5fe;
        fill-rule: evenodd;
      }
    </style>
  </defs>
  <path id="Path_Tracing" data-name="Path Tracing" class="cls-1" d="M3.448,27.338V18.953A0.332,0.332,0,0,1,3.842,18.6h6.5a5.747,5.747,0,0,0,4.252-1.535,5.8,5.8,0,0,0,1.535-4.291V8.4A5.816,5.816,0,0,0,14.59,4.13a5.705,5.705,0,0,0-4.252-1.555H1.125a0.487,0.487,0,0,0-.551.551V27.338a0.487,0.487,0,0,0,.551.551H2.9a0.487,0.487,0,0,0,.551-0.551h0Zm0-11.654V5.449a0.332,0.332,0,0,1,.394-0.354h6.1q3.307,0,3.307,3.425v4.134q0,3.387-3.307,3.386h-6.1a0.332,0.332,0,0,1-.394-0.354h0ZM31.991,25.8h0.158v1.535a0.487,0.487,0,0,0,.551.551h1.772a0.487,0.487,0,0,0,.551-0.551V8.362a0.487,0.487,0,0,0-.551-0.551H25.928a5.814,5.814,0,0,0-4.272,1.535A5.758,5.758,0,0,0,20.1,13.638v8.425a5.756,5.756,0,0,0,1.555,4.291,5.814,5.814,0,0,0,4.272,1.536h2.047q3.031,0,4.016-2.087h0ZM31.2,24.425a3.677,3.677,0,0,1-2.716.945H26.243q-3.268,0-3.268-3.425V13.756q0-3.425,3.268-3.425h5.512a0.332,0.332,0,0,1,.394.354V21.748A3.62,3.62,0,0,1,31.2,24.425Zm10-13.74V22.141a5.521,5.521,0,0,0,1.614,4.232,6.069,6.069,0,0,0,4.331,1.516h1.89a0.49,0.49,0,0,0,.59-0.512V25.921a0.505,0.505,0,0,0-.59-0.551H47.5q-3.465,0-3.465-3.347V10.685a0.352,0.352,0,0,1,.433-0.354h4.173a0.49,0.49,0,0,0,.59-0.512V8.362a0.505,0.505,0,0,0-.59-0.551H44.472a0.352,0.352,0,0,1-.433-0.354V4.071a0.471,0.471,0,0,0-.512-0.551H41.755a0.487,0.487,0,0,0-.551.551V7.456a0.332,0.332,0,0,1-.394.354H38.645a0.487,0.487,0,0,0-.551.551V9.819a0.47,0.47,0,0,0,.551.512H40.81a0.332,0.332,0,0,1,.394.354h0ZM56.283,27.338V13.953a3.621,3.621,0,0,1,.945-2.677,3.677,3.677,0,0,1,2.716-.945h2.2q3.307,0,3.307,3.425V27.338a0.487,0.487,0,0,0,.551.551h1.772a0.487,0.487,0,0,0,.551-0.551v-13.7a5.892,5.892,0,0,0-1.5-4.291,5.559,5.559,0,0,0-4.173-1.535h-2.2q-3.032,0-4.016,2.087H56.283V0.763A0.487,0.487,0,0,0,55.732.212H53.96a0.487,0.487,0,0,0-.551.551V27.338a0.487,0.487,0,0,0,.551.551h1.772a0.487,0.487,0,0,0,.551-0.551h0Zm33.622,0V5.449A0.332,0.332,0,0,1,90.3,5.094h5.354a0.505,0.505,0,0,0,.59-0.551V3.126a0.505,0.505,0,0,0-.59-0.551H81.283a0.505,0.505,0,0,0-.591.551V4.543a0.505,0.505,0,0,0,.591.551h5.354a0.332,0.332,0,0,1,.394.354v21.89a0.487,0.487,0,0,0,.551.551h1.772a0.487,0.487,0,0,0,.551-0.551h0Zm12.165,0V14.307a4.23,4.23,0,0,1,.945-2.913,3.445,3.445,0,0,1,2.717-1.063h2.126a0.409,0.409,0,0,0,.393-0.1,0.62,0.62,0,0,0,.118-0.413V8.362a0.471,0.471,0,0,0-.511-0.551h-1.536a5.148,5.148,0,0,0-2.6.63,3.414,3.414,0,0,0-1.5,1.5H102.07V8.362a0.487,0.487,0,0,0-.551-0.551H99.747a0.487,0.487,0,0,0-.551.551V27.338a0.487,0.487,0,0,0,.551.551h1.772a0.487,0.487,0,0,0,.551-0.551h0ZM123.015,25.8h0.158v1.535a0.487,0.487,0,0,0,.551.551H125.5a0.487,0.487,0,0,0,.552-0.551V8.362a0.488,0.488,0,0,0-.552-0.551h-8.543a5.816,5.816,0,0,0-4.272,1.535,5.758,5.758,0,0,0-1.555,4.291v8.425a5.757,5.757,0,0,0,1.555,4.291,5.816,5.816,0,0,0,4.272,1.536H119q3.031,0,4.016-2.087h0Zm-0.787-1.378a3.678,3.678,0,0,1-2.717.945h-2.244Q114,25.37,114,21.945V13.756q0-3.425,3.268-3.425h5.512a0.332,0.332,0,0,1,.394.354V21.748A3.62,3.62,0,0,1,122.228,24.425Zm20,0.945h-5.394q-3.269,0-3.268-3.425V13.756q0-3.425,3.268-3.425h5.394a0.471,0.471,0,0,0,.551-0.512V8.362a0.487,0.487,0,0,0-.551-0.551h-5.709a5.816,5.816,0,0,0-4.272,1.535,5.758,5.758,0,0,0-1.555,4.291v8.425a5.757,5.757,0,0,0,1.555,4.291,5.816,5.816,0,0,0,4.272,1.536h5.709a0.471,0.471,0,0,0,.551-0.512V25.921a0.487,0.487,0,0,0-.551-0.551h0ZM147.11,5.055h1.811a0.487,0.487,0,0,0,.551-0.551V0.8a0.487,0.487,0,0,0-.551-0.551H147.11A0.47,0.47,0,0,0,146.6.8V4.5a0.47,0.47,0,0,0,.512.551h0Zm0.039,22.835h1.772a0.487,0.487,0,0,0,.551-0.551V8.362a0.487,0.487,0,0,0-.551-0.551H147.11a0.47,0.47,0,0,0-.512.551V27.338a0.487,0.487,0,0,0,.551.551h0Zm10.433-.551V13.953a3.621,3.621,0,0,1,.945-2.677,3.677,3.677,0,0,1,2.717-.945h2.2q3.307,0,3.307,3.425V27.338a0.487,0.487,0,0,0,.552.551h1.771a0.487,0.487,0,0,0,.551-0.551v-13.7a5.893,5.893,0,0,0-1.5-4.291,5.558,5.558,0,0,0-4.173-1.535h-2.205q-3.031,0-4.015,2.087h-0.158V8.362a0.487,0.487,0,0,0-.551-0.551h-1.772a0.487,0.487,0,0,0-.551.551V27.338a0.487,0.487,0,0,0,.551.551h1.772a0.487,0.487,0,0,0,.551-0.551h0Zm28.5-2.6h0.158v3.032q0,3.386-3.308,3.386h-6.889a0.505,0.505,0,0,0-.591.551v1.457a0.506,0.506,0,0,0,.591.551h7.244a5.38,5.38,0,0,0,5.827-5.827V8.362a0.488,0.488,0,0,0-.552-0.551h-8.543a5.816,5.816,0,0,0-4.272,1.535,5.758,5.758,0,0,0-1.555,4.291V21a5.892,5.892,0,0,0,1.5,4.291,5.559,5.559,0,0,0,4.174,1.535h2.2q2.993,0,4.016-2.087h0ZM185.3,23.362a3.678,3.678,0,0,1-2.717.945h-2.2q-3.306,0-3.307-3.425V13.756q0-3.425,3.307-3.425h5.473a0.332,0.332,0,0,1,.394.354v10A3.62,3.62,0,0,1,185.3,23.362Z"/>
</svg>
