<svg xmlns="http://www.w3.org/2000/svg" width="175" height="35" viewBox="0 0 175 35">
  <defs>
    <style>
      .cls-1 {
        fill: #5ef5fe;
        fill-rule: evenodd;
      }
    </style>
  </defs>
  <path id="Ray_Tracing" data-name="Ray Tracing" class="cls-1" d="M3.246,27.945V18.772a0.332,0.332,0,0,1,.394-0.354h5.2l4.409,9.528a1.053,1.053,0,0,0,.984.551H16q0.747,0,.394-0.63L11.828,18.3V18.142a5.064,5.064,0,0,0,2.953-1.909,5.959,5.959,0,0,0,1.063-3.642V9.008a5.734,5.734,0,0,0-1.575-4.272A5.842,5.842,0,0,0,9.978,3.182H0.923a0.487,0.487,0,0,0-.551.551V27.945a0.487,0.487,0,0,0,.551.551H2.694a0.487,0.487,0,0,0,.551-0.551h0Zm0-12.283V6.056A0.332,0.332,0,0,1,3.639,5.7H9.584q3.385,0,3.386,3.425v3.5q0,3.387-3.386,3.386H3.639a0.332,0.332,0,0,1-.394-0.354h0ZM32.222,26.41H32.38v1.535a0.487,0.487,0,0,0,.551.551H34.7a0.487,0.487,0,0,0,.551-0.551V8.969A0.487,0.487,0,0,0,34.7,8.418H26.159a5.814,5.814,0,0,0-4.272,1.535,5.757,5.757,0,0,0-1.555,4.291V22.67a5.757,5.757,0,0,0,1.555,4.291A5.815,5.815,0,0,0,26.159,28.5h2.047q3.031,0,4.016-2.087h0Zm-0.787-1.378a3.676,3.676,0,0,1-2.716.945H26.474q-3.268,0-3.268-3.425V14.363q0-3.425,3.268-3.425h5.512a0.332,0.332,0,0,1,.394.354V22.355A3.62,3.62,0,0,1,31.435,25.032Zm14.98,7.835a14.325,14.325,0,0,0,2.5-5.157l5.866-18.7q0.2-.591-0.472-0.591H52.5a0.6,0.6,0,0,0-.63.551l-5.079,16.22H46.632L41.553,8.969a0.659,0.659,0,0,0-.669-0.551h-1.89q-0.552,0-.394.551l5.787,17.913a0.7,0.7,0,0,0,.669.551H46.2A11.611,11.611,0,0,1,44.7,30.7a4.082,4.082,0,0,1-3.543,1.417H40.175a0.487,0.487,0,0,0-.551.551v1.457a0.487,0.487,0,0,0,.551.551h1.732A5.546,5.546,0,0,0,46.415,32.867ZM74.86,27.945V6.056A0.332,0.332,0,0,1,75.254,5.7h5.354A0.505,0.505,0,0,0,81.2,5.15V3.733a0.505,0.505,0,0,0-.59-0.551H66.238a0.505,0.505,0,0,0-.591.551V5.15a0.505,0.505,0,0,0,.591.551h5.354a0.332,0.332,0,0,1,.394.354v21.89a0.487,0.487,0,0,0,.551.551h1.772a0.487,0.487,0,0,0,.551-0.551h0Zm12.165,0V14.914A4.23,4.23,0,0,1,87.97,12a3.444,3.444,0,0,1,2.716-1.063h2.126a0.411,0.411,0,0,0,.394-0.1,0.621,0.621,0,0,0,.118-0.413V8.969a0.471,0.471,0,0,0-.512-0.551H91.277a5.151,5.151,0,0,0-2.6.63,3.413,3.413,0,0,0-1.5,1.5H87.025V8.969a0.487,0.487,0,0,0-.551-0.551H84.7a0.487,0.487,0,0,0-.551.551V27.945a0.487,0.487,0,0,0,.551.551h1.772a0.487,0.487,0,0,0,.551-0.551h0ZM107.97,26.41h0.158v1.535a0.487,0.487,0,0,0,.551.551h1.772A0.487,0.487,0,0,0,111,27.945V8.969a0.487,0.487,0,0,0-.551-0.551h-8.544a5.814,5.814,0,0,0-4.271,1.535,5.758,5.758,0,0,0-1.555,4.291V22.67a5.757,5.757,0,0,0,1.555,4.291,5.814,5.814,0,0,0,4.271,1.535h2.047q3.032,0,4.016-2.087h0Zm-0.787-1.378a3.678,3.678,0,0,1-2.717.945h-2.244q-3.268,0-3.267-3.425V14.363q0-3.425,3.267-3.425h5.512a0.332,0.332,0,0,1,.394.354V22.355A3.62,3.62,0,0,1,107.183,25.032Zm20,0.945h-5.394q-3.269,0-3.268-3.425V14.363q0-3.425,3.268-3.425h5.394a0.471,0.471,0,0,0,.551-0.512V8.969a0.487,0.487,0,0,0-.551-0.551h-5.709A5.812,5.812,0,0,0,117.2,9.953a5.755,5.755,0,0,0-1.556,4.291V22.67a5.754,5.754,0,0,0,1.556,4.291,5.812,5.812,0,0,0,4.271,1.535h5.709a0.471,0.471,0,0,0,.551-0.512V26.528a0.487,0.487,0,0,0-.551-0.551h0Zm4.882-20.315h1.811a0.487,0.487,0,0,0,.551-0.551V1.41a0.487,0.487,0,0,0-.551-0.551h-1.811a0.47,0.47,0,0,0-.512.551v3.7a0.47,0.47,0,0,0,.512.551h0ZM132.1,28.5h1.772a0.487,0.487,0,0,0,.551-0.551V8.969a0.487,0.487,0,0,0-.551-0.551h-1.811a0.47,0.47,0,0,0-.512.551V27.945a0.487,0.487,0,0,0,.551.551h0Zm10.433-.551V14.56a3.621,3.621,0,0,1,.945-2.677,3.678,3.678,0,0,1,2.717-.945h2.2q3.308,0,3.307,3.425V27.945a0.487,0.487,0,0,0,.552.551h1.771a0.487,0.487,0,0,0,.551-0.551v-13.7a5.889,5.889,0,0,0-1.5-4.291,5.556,5.556,0,0,0-4.173-1.535h-2.2q-3.032,0-4.015,2.087h-0.158V8.969a0.487,0.487,0,0,0-.551-0.551h-1.772a0.487,0.487,0,0,0-.551.551V27.945a0.487,0.487,0,0,0,.551.551h1.772a0.487,0.487,0,0,0,.551-0.551h0Zm28.5-2.6H171.2v3.031q0,3.386-3.307,3.386H161a0.505,0.505,0,0,0-.591.551v1.457a0.506,0.506,0,0,0,.591.551h7.244a5.379,5.379,0,0,0,5.827-5.827V8.969a0.488,0.488,0,0,0-.552-0.551h-8.543a5.812,5.812,0,0,0-4.271,1.535,5.755,5.755,0,0,0-1.556,4.291v7.362a5.892,5.892,0,0,0,1.5,4.291,5.56,5.56,0,0,0,4.174,1.535h2.2q2.993,0,4.016-2.087h0Zm-0.787-1.378a3.678,3.678,0,0,1-2.717.945h-2.2q-3.308,0-3.308-3.425V14.363q0-3.425,3.308-3.425h5.472a0.332,0.332,0,0,1,.394.354v10A3.62,3.62,0,0,1,170.254,23.969Z"/>
</svg>
