<svg xmlns="http://www.w3.org/2000/svg" width="164" height="66" viewBox="0 0 164 66">
  <defs>
    <style>
      .cls-1 {
        fill: #ff6158;
      }

      .cls-1, .cls-2 {
        fill-rule: evenodd;
      }

      .cls-2 {
        fill: #5ef5fe;
      }
    </style>
  </defs>
  <path id="Close" class="cls-1" d="M79.457,45.889a7.425,7.425,0,0,0,2-5.533V37.869a0.628,0.628,0,0,0-.711-0.711H78.467a0.628,0.628,0,0,0-.711.711V40.2q0,4.416-4.264,4.416H68.264q-4.214,0-4.213-4.416V22.895q0-4.416,4.213-4.416h5.228q4.264,0,4.264,4.416v2.335a0.628,0.628,0,0,0,.711.711h2.284a0.628,0.628,0,0,0,.711-0.711V22.742a7.427,7.427,0,0,0-2-5.533,7.5,7.5,0,0,0-5.508-1.98H67.858a7.5,7.5,0,0,0-5.507,1.98,7.423,7.423,0,0,0-2.005,5.533V40.356a7.422,7.422,0,0,0,2.005,5.533,7.5,7.5,0,0,0,5.507,1.98h6.091A7.5,7.5,0,0,0,79.457,45.889Zm11.8,1.269V12.895a0.628,0.628,0,0,0-.711-0.711H88.263a0.628,0.628,0,0,0-.711.711V47.158a0.628,0.628,0,0,0,.711.711h2.284a0.628,0.628,0,0,0,.711-0.711h0Zm23.629-1.269a7.427,7.427,0,0,0,2-5.533V29.493a7.428,7.428,0,0,0-2-5.533,7.5,7.5,0,0,0-5.507-1.98h-4.366a7.5,7.5,0,0,0-5.507,1.98,7.423,7.423,0,0,0-2,5.533V40.356a7.422,7.422,0,0,0,2,5.533,7.5,7.5,0,0,0,5.507,1.98h4.366A7.5,7.5,0,0,0,114.887,45.889Zm-13.731-5.634V29.595q0-4.365,4.264-4.365h3.553q4.265,0,4.264,4.365v10.66q0,4.366-4.264,4.365H105.42q-4.263,0-4.264-4.365h0Zm37.766,1.523a9.5,9.5,0,0,0-.939-4.619,6.6,6.6,0,0,0-3.579-2.69l-5.989-2.69q-2.893-1.116-2.894-3.249V27.666a2.242,2.242,0,0,1,.939-1.777,4.314,4.314,0,0,1,2.767-.761h7.664a0.607,0.607,0,0,0,.711-0.66V22.691a0.628,0.628,0,0,0-.711-0.711h-8.324q-6.853,0-6.853,6.244a6.1,6.1,0,0,0,1.117,3.832,8.818,8.818,0,0,0,3.7,2.513l5.99,2.538a3.7,3.7,0,0,1,2.589,3.705v0.965q0,2.944-3.959,2.944h-8.528a0.607,0.607,0,0,0-.711.66v1.777a0.628,0.628,0,0,0,.711.711h9.035q7.258,0,7.259-6.091h0Zm23.908,5.431V45.381a0.628,0.628,0,0,0-.711-0.711H151.764q-4.263,0-4.264-4.416v-3.1a0.428,0.428,0,0,1,.508-0.457h14.365a0.652,0.652,0,0,0,.711-0.761V29.493a7.48,7.48,0,0,0-1.98-5.533,7.409,7.409,0,0,0-5.482-1.98h-4.264a7.5,7.5,0,0,0-5.507,1.98,7.42,7.42,0,0,0-2,5.533V40.356a7.419,7.419,0,0,0,2,5.533,7.5,7.5,0,0,0,5.507,1.98h10.761a0.607,0.607,0,0,0,.711-0.66h0ZM147.5,33.5V29.595q0-4.365,4.264-4.365h3.452q4.263,0,4.264,4.365V33.5a0.449,0.449,0,0,1-.508.508H148.008A0.449,0.449,0,0,1,147.5,33.5h0Z"/>
  <path class="cls-2" d="M20.62,0.722s-15.757-.5-17,9c-1.293,5.324-2.789,36.325-3,39s1.466,17,19,17,20.055-13.969,20-17-2.058-36.158-3-39C36.564,7.421,33.557.722,20.62,0.722Zm14,27h-29s-1,17.062-1,20,1.138,14,16,14,15-11.182,15-14S34.964,33.625,34.62,27.722Zm-14-3v-20s-14-.586-14,6v14h14Z"/>
</svg>
