<svg xmlns="http://www.w3.org/2000/svg" width="204" height="59" viewBox="0 0 204 59">
  <defs>
    <style>
      .cls-1 {
        fill: none;
        stroke: #5ef5fe;
        stroke-width: 3px;
      }

      .cls-1, .cls-2, .cls-3 {
        fill-rule: evenodd;
      }

      .cls-2 {
        fill: #ff5b54;
      }

      .cls-3 {
        fill: #5ef5fe;
      }
    </style>
  </defs>
  <path class="cls-1" d="M5.819,1.722h47a4,4,0,0,1,4,4v47a4,4,0,0,1-4,4h-47a4,4,0,0,1-4-4v-47A4,4,0,0,1,5.819,1.722Z"/>
  <path id="Hide_UI" data-name="Hide UI" class="cls-2" d="M74.107,44.414V30.709a0.428,0.428,0,0,1,.508-0.457H87.2a0.428,0.428,0,0,1,.508.457V44.414a0.628,0.628,0,0,0,.711.711h2.284a0.628,0.628,0,0,0,.711-0.711V13.2a0.628,0.628,0,0,0-.711-0.711H88.421a0.628,0.628,0,0,0-.711.711v13.35A0.428,0.428,0,0,1,87.2,27H74.614a0.428,0.428,0,0,1-.508-0.457V13.2a0.628,0.628,0,0,0-.711-0.711H71.112a0.628,0.628,0,0,0-.711.711V44.414a0.628,0.628,0,0,0,.711.711H73.4a0.628,0.628,0,0,0,.711-0.711h0Zm25.228-28.73h2.335a0.628,0.628,0,0,0,.711-0.711V10.2a0.628,0.628,0,0,0-.711-0.711H99.334a0.607,0.607,0,0,0-.66.711v4.771a0.606,0.606,0,0,0,.66.711h0Zm0.051,29.441h2.284a0.628,0.628,0,0,0,.711-0.711V19.948a0.628,0.628,0,0,0-.711-0.711H99.334a0.607,0.607,0,0,0-.66.711V44.414a0.628,0.628,0,0,0,.711.711h0Zm24.771-2.69h0.2v1.98a0.607,0.607,0,0,0,.66.711h2.335a0.607,0.607,0,0,0,.66-0.711V10.151a0.607,0.607,0,0,0-.66-0.711h-2.335a0.607,0.607,0,0,0-.66.711V21.928h-0.2q-1.269-2.69-5.228-2.69h-2.995a7.166,7.166,0,0,0-5.381,1.98,7.6,7.6,0,0,0-1.929,5.533V37.613a7.594,7.594,0,0,0,1.929,5.533,7.166,7.166,0,0,0,5.381,1.98h2.995q3.958,0,5.228-2.69h0Zm-1.015-1.777a4.742,4.742,0,0,1-3.5,1.218h-3.1q-4.213,0-4.213-4.416V26.9q0-4.416,4.213-4.416h3.1a4.742,4.742,0,0,1,3.5,1.218,4.669,4.669,0,0,1,1.218,3.452V37.206A4.668,4.668,0,0,1,123.141,40.658Zm29.847,3.807V42.638a0.629,0.629,0,0,0-.711-0.711H141.922q-4.264,0-4.264-4.416v-3.1a0.428,0.428,0,0,1,.508-0.457h14.365a0.651,0.651,0,0,0,.71-0.761V26.75a7.479,7.479,0,0,0-1.979-5.533,7.409,7.409,0,0,0-5.482-1.98h-4.264a7.5,7.5,0,0,0-5.508,1.98A7.424,7.424,0,0,0,134,26.75V37.613a7.423,7.423,0,0,0,2.005,5.533,7.5,7.5,0,0,0,5.508,1.98h10.761a0.607,0.607,0,0,0,.711-0.66h0ZM137.658,30.76V26.851q0-4.365,4.264-4.365h3.452q4.263,0,4.263,4.365V30.76a0.448,0.448,0,0,1-.507.508H138.166a0.449,0.449,0,0,1-.508-0.508h0ZM188.57,13.2V37.46q0,4.416-4.263,4.416h-4.772q-4.213,0-4.213-4.416V13.2a0.628,0.628,0,0,0-.711-0.711h-2.284a0.628,0.628,0,0,0-.71.711V37.613a7.419,7.419,0,0,0,2.005,5.533,7.5,7.5,0,0,0,5.507,1.98h5.634a6.866,6.866,0,0,0,7.462-7.513V13.146a0.607,0.607,0,0,0-.711-0.66H189.23a0.607,0.607,0,0,0-.66.711h0Zm14.162-.711h-2.284a0.628,0.628,0,0,0-.71.711V44.414a0.627,0.627,0,0,0,.71.711h2.284a0.628,0.628,0,0,0,.711-0.711V13.2a0.628,0.628,0,0,0-.711-0.711h0Z"/>
  <path id="H" class="cls-3" d="M24.229,42.08V30.771a0.439,0.439,0,0,1,.536-0.447H34.2a0.4,0.4,0,0,1,.447.447V42.08a0.671,0.671,0,0,0,.76.76h2.861a0.672,0.672,0,0,0,.76-0.76V14.857a0.672,0.672,0,0,0-.76-0.76H35.4a0.671,0.671,0,0,0-.76.76V26.032a0.4,0.4,0,0,1-.447.447H24.766a0.439,0.439,0,0,1-.536-0.447V14.857a0.672,0.672,0,0,0-.76-0.76H20.653a0.671,0.671,0,0,0-.76.76V42.08a0.671,0.671,0,0,0,.76.76h2.816a0.672,0.672,0,0,0,.76-0.76h0Z"/>
</svg>
