<svg xmlns="http://www.w3.org/2000/svg" width="690" height="57" viewBox="0 0 690 57">
  <defs>
    <style>
      .cls-1 {
        fill: #0e0f17;
        stroke: #328d93;
        stroke-width: 4px;
      }

      .cls-1, .cls-2 {
        fill-rule: evenodd;
      }

      .cls-2 {
        fill: #5ef5fe;
      }
    </style>
  </defs>
  <path id="Selected" class="cls-1" d="M2.208,2.143H687.291L687.4,54.856,2.208,54.912V2.143Z"/>
  <path id="Left" class="cls-2" d="M35.677,40.847V39.3a0.537,0.537,0,0,0-.586-0.628H24.541a0.353,0.353,0,0,1-.419-0.377V15.1a0.518,0.518,0,0,0-.586-0.586H21.653a0.518,0.518,0,0,0-.586.586V40.847a0.518,0.518,0,0,0,.586.586H35.091a0.518,0.518,0,0,0,.586-0.586h0Zm18.67,0.042V39.382a0.518,0.518,0,0,0-.586-0.586h-8.54q-3.516,0-3.516-3.642V32.6a0.353,0.353,0,0,1,.419-0.377H53.97a0.537,0.537,0,0,0,.586-0.628V26.279a6.169,6.169,0,0,0-1.633-4.563A6.11,6.11,0,0,0,48.4,20.084H44.886a6.183,6.183,0,0,0-4.542,1.633,6.122,6.122,0,0,0-1.654,4.563v8.959A6.121,6.121,0,0,0,40.344,39.8a6.183,6.183,0,0,0,4.542,1.633h8.875a0.5,0.5,0,0,0,.586-0.544h0ZM41.7,29.586V26.363q0-3.6,3.516-3.6h2.847q3.516,0,3.517,3.6v3.223a0.37,0.37,0,0,1-.419.419H42.123a0.37,0.37,0,0,1-.419-0.419h0Zm22.564-9.879V18.284a4.474,4.474,0,0,1,.67-2.742,2.867,2.867,0,0,1,2.386-.858h1.047a0.518,0.518,0,0,0,.586-0.586V12.549A0.5,0.5,0,0,0,68.371,12H66.948a5.517,5.517,0,0,0-4.27,1.591,6.5,6.5,0,0,0-1.465,4.563v1.549a0.353,0.353,0,0,1-.419.377h-2.47a0.5,0.5,0,0,0-.586.544v1.549a0.518,0.518,0,0,0,.586.586h2.47a0.353,0.353,0,0,1,.419.377V40.847a0.518,0.518,0,0,0,.586.586H63.64a0.537,0.537,0,0,0,.628-0.586V23.14a0.333,0.333,0,0,1,.377-0.377h3.684a0.537,0.537,0,0,0,.628-0.586V20.628a0.521,0.521,0,0,0-.628-0.544H64.645a0.333,0.333,0,0,1-.377-0.377h0Zm9.126,3.433V35.322a5.87,5.87,0,0,0,1.716,4.5,6.453,6.453,0,0,0,4.6,1.612h2.009a0.521,0.521,0,0,0,.628-0.544V39.34a0.537,0.537,0,0,0-.628-0.586H80.092q-3.684,0-3.684-3.558V23.14a0.374,0.374,0,0,1,.46-0.377h4.437a0.521,0.521,0,0,0,.628-0.544V20.67a0.537,0.537,0,0,0-.628-0.586H76.869a0.374,0.374,0,0,1-.46-0.377v-3.6a0.5,0.5,0,0,0-.544-0.586H73.98a0.518,0.518,0,0,0-.586.586v3.6a0.353,0.353,0,0,1-.419.377h-2.3a0.518,0.518,0,0,0-.586.586v1.549a0.5,0.5,0,0,0,.586.544h2.3a0.353,0.353,0,0,1,.419.377h0Z"/>
</svg>
