<svg xmlns="http://www.w3.org/2000/svg" width="293" height="59" viewBox="0 0 293 59">
  <defs>
    <style>
      .cls-1 {
        fill: none;
        stroke: #5ef5fe;
        stroke-width: 3px;
      }

      .cls-1, .cls-2, .cls-3 {
        fill-rule: evenodd;
      }

      .cls-2 {
        fill: #ff5b54;
      }

      .cls-3 {
        fill: #5ef5fe;
      }
    </style>
  </defs>
  <path class="cls-1" d="M5.632,1.842h47a4,4,0,0,1,4,4v47a4,4,0,0,1-4,4h-47a4,4,0,0,1-4-4v-47A4,4,0,0,1,5.632,1.842Z"/>
  <path id="Mute_Music" data-name="Mute Music" class="cls-2" d="M92.548,13.013L84.223,34.027H83.969L75.645,13.013a0.592,0.592,0,0,0-.609-0.406H70.924a0.628,0.628,0,0,0-.711.711V44.535a0.628,0.628,0,0,0,.711.711h2.234a0.607,0.607,0,0,0,.66-0.711v-27h0.2l8.02,19.949a0.835,0.835,0,0,0,.863.66H85.34a0.977,0.977,0,0,0,.914-0.66l7.868-19.9h0.2V44.535a0.628,0.628,0,0,0,.711.711h2.233a0.628,0.628,0,0,0,.711-0.711V13.317a0.628,0.628,0,0,0-.711-0.711H93.157a0.544,0.544,0,0,0-.609.406h0ZM120.06,42.555h0.2v1.98a0.627,0.627,0,0,0,.71.711h2.284a0.628,0.628,0,0,0,.711-0.711V20.068a0.628,0.628,0,0,0-.711-0.711h-2.284a0.628,0.628,0,0,0-.71.711V37.327a4.669,4.669,0,0,1-1.219,3.452,4.739,4.739,0,0,1-3.5,1.218h-2.893q-4.215,0-4.214-4.416V20.068a0.628,0.628,0,0,0-.71-0.711h-2.284a0.628,0.628,0,0,0-.711.711V37.733a7.59,7.59,0,0,0,1.929,5.533,7.165,7.165,0,0,0,5.38,1.98h2.843q3.907,0,5.178-2.69h0Zm11.877-19.492V37.834a7.119,7.119,0,0,0,2.082,5.457,7.823,7.823,0,0,0,5.583,1.954h2.437a0.632,0.632,0,0,0,.761-0.66V42.707A0.652,0.652,0,0,0,142.039,42h-1.98q-4.467,0-4.467-4.315V23.063a0.454,0.454,0,0,1,.558-0.457h5.381a0.631,0.631,0,0,0,.761-0.66V20.068a0.651,0.651,0,0,0-.761-0.711H136.15a0.454,0.454,0,0,1-.558-0.457V14.536a0.607,0.607,0,0,0-.66-0.711h-2.284a0.628,0.628,0,0,0-.711.711V18.9a0.427,0.427,0,0,1-.507.457h-2.792a0.628,0.628,0,0,0-.711.711v1.878a0.607,0.607,0,0,0,.711.66h2.792a0.427,0.427,0,0,1,.507.457h0ZM166.15,44.586V42.758a0.629,0.629,0,0,0-.711-0.711H155.084q-4.264,0-4.264-4.416v-3.1a0.428,0.428,0,0,1,.508-0.457h14.365a0.651,0.651,0,0,0,.71-0.761V26.87a7.479,7.479,0,0,0-1.979-5.533,7.409,7.409,0,0,0-5.482-1.98h-4.264a7.5,7.5,0,0,0-5.508,1.98,7.424,7.424,0,0,0-2,5.533V37.733a7.423,7.423,0,0,0,2,5.533,7.5,7.5,0,0,0,5.508,1.98h10.761a0.607,0.607,0,0,0,.711-0.66h0ZM150.82,30.88V26.972q0-4.365,4.264-4.365h3.452q4.263,0,4.263,4.365V30.88a0.448,0.448,0,0,1-.507.508H151.328a0.449,0.449,0,0,1-.508-0.508h0Zm56.547-17.867-8.325,21.015h-0.254l-8.324-21.015a0.593,0.593,0,0,0-.609-0.406h-4.112a0.628,0.628,0,0,0-.711.711V44.535a0.628,0.628,0,0,0,.711.711h2.233a0.607,0.607,0,0,0,.66-0.711v-27h0.2l8.02,19.949a0.836,0.836,0,0,0,.863.66h2.437a0.976,0.976,0,0,0,.913-0.66l7.868-19.9h0.2V44.535a0.628,0.628,0,0,0,.711.711h2.233a0.628,0.628,0,0,0,.711-0.711V13.317a0.628,0.628,0,0,0-.711-0.711h-4.111a0.543,0.543,0,0,0-.609.406h0Zm27.512,29.542h0.2v1.98a0.627,0.627,0,0,0,.71.711h2.285a0.628,0.628,0,0,0,.71-0.711V20.068a0.628,0.628,0,0,0-.71-0.711h-2.285a0.628,0.628,0,0,0-.71.711V37.327a4.665,4.665,0,0,1-1.219,3.452,4.739,4.739,0,0,1-3.5,1.218h-2.893q-4.215,0-4.213-4.416V20.068a0.629,0.629,0,0,0-.711-0.711H220.26a0.628,0.628,0,0,0-.711.711V37.733a7.594,7.594,0,0,0,1.929,5.533,7.166,7.166,0,0,0,5.381,1.98H229.7q3.909,0,5.178-2.69h0Zm26.446-3.4a9.515,9.515,0,0,0-.939-4.619,6.6,6.6,0,0,0-3.579-2.69l-5.99-2.69q-2.894-1.116-2.893-3.249V25.043a2.239,2.239,0,0,1,.939-1.777,4.313,4.313,0,0,1,2.766-.761h7.665a0.607,0.607,0,0,0,.711-0.66V20.068a0.628,0.628,0,0,0-.711-0.711H250.97q-6.853,0-6.853,6.243a6.1,6.1,0,0,0,1.117,3.832,8.81,8.81,0,0,0,3.7,2.513l5.99,2.538a3.7,3.7,0,0,1,2.589,3.706v0.965q0,2.944-3.96,2.944h-8.527a0.607,0.607,0,0,0-.711.66v1.777a0.628,0.628,0,0,0,.711.711h9.035q7.258,0,7.259-6.091h0ZM267.67,15.8h2.335a0.628,0.628,0,0,0,.71-0.711V10.323a0.628,0.628,0,0,0-.71-0.711H267.67a0.606,0.606,0,0,0-.66.711v4.771a0.606,0.606,0,0,0,.66.711h0Zm0.05,29.441h2.285a0.628,0.628,0,0,0,.71-0.711V20.068a0.628,0.628,0,0,0-.71-0.711H267.67a0.606,0.606,0,0,0-.66.711V44.535a0.627,0.627,0,0,0,.71.711h0ZM291.831,42h-6.954q-4.214,0-4.213-4.416V27.023q0-4.416,4.213-4.416h6.954a0.607,0.607,0,0,0,.711-0.66V20.068a0.628,0.628,0,0,0-.711-0.711h-7.36a7.5,7.5,0,0,0-5.507,1.98,7.42,7.42,0,0,0-2,5.533V37.733a7.419,7.419,0,0,0,2,5.533,7.5,7.5,0,0,0,5.507,1.98h7.36a0.607,0.607,0,0,0,.711-0.66V42.707A0.628,0.628,0,0,0,291.831,42h0Z"/>
  <path id="M" class="cls-3" d="M34.876,15.27l-5.92,16.558H28.742L22.865,15.27a0.716,0.716,0,0,0-.687-0.472h-4.8a0.644,0.644,0,0,0-.729.729V41.651a0.644,0.644,0,0,0,.729.729h2.617a0.59,0.59,0,0,0,.729-0.729V19.946h0.172L26.6,35.688a0.918,0.918,0,0,0,.9.686h2.745a0.944,0.944,0,0,0,.944-0.686l5.576-15.7h0.172V41.651a0.644,0.644,0,0,0,.729.729h2.66a0.645,0.645,0,0,0,.729-0.729V15.527a0.645,0.645,0,0,0-.729-0.729h-4.8a0.563,0.563,0,0,0-.643.472h0Z"/>
</svg>
