<svg xmlns="http://www.w3.org/2000/svg" width="276" height="59" viewBox="0 0 276 59">
  <defs>
    <style>
      .cls-1 {
        fill: none;
        stroke: #5ef5fe;
        stroke-width: 3px;
      }

      .cls-1, .cls-2, .cls-3 {
        fill-rule: evenodd;
      }

      .cls-2 {
        fill: #ff5b54;
      }

      .cls-3 {
        fill: #5ef5fe;
      }
    </style>
  </defs>
  <path class="cls-1" d="M5.632,1.842h47a4,4,0,0,1,4,4v47a4,4,0,0,1-4,4h-47a4,4,0,0,1-4-4v-47A4,4,0,0,1,5.632,1.842Z"/>
  <path id="Play_Music" data-name="Play Music" class="cls-2" d="M73.919,44.535V33.723a0.428,0.428,0,0,1,.508-0.457H82.8a7.409,7.409,0,0,0,5.482-1.98,7.479,7.479,0,0,0,1.98-5.533V20.119a7.5,7.5,0,0,0-1.98-5.507A7.356,7.356,0,0,0,82.8,12.607H70.924a0.628,0.628,0,0,0-.711.711V44.535a0.628,0.628,0,0,0,.711.711h2.284a0.628,0.628,0,0,0,.711-0.711h0Zm0-15.025v-13.2a0.428,0.428,0,0,1,.508-0.457h7.868q4.264,0,4.264,4.416V25.6q0,4.366-4.264,4.365H74.426a0.428,0.428,0,0,1-.508-0.457h0ZM99.857,44.535V10.272a0.628,0.628,0,0,0-.711-0.711H96.862a0.628,0.628,0,0,0-.711.711V44.535a0.628,0.628,0,0,0,.711.711h2.284a0.628,0.628,0,0,0,.711-0.711h0Zm21.573-1.98h0.2v1.98a0.628,0.628,0,0,0,.711.711h2.284a0.629,0.629,0,0,0,.711-0.711V20.068a0.629,0.629,0,0,0-.711-0.711H113.613a7.5,7.5,0,0,0-5.507,1.98,7.42,7.42,0,0,0-2,5.533V37.733a7.419,7.419,0,0,0,2,5.533,7.5,7.5,0,0,0,5.507,1.98h2.64q3.908,0,5.177-2.69h0Zm-1.015-1.777a4.742,4.742,0,0,1-3.5,1.218h-2.893q-4.214,0-4.213-4.416V27.023q0-4.416,4.213-4.416h7.106a0.428,0.428,0,0,1,.508.457V37.327A4.668,4.668,0,0,1,120.415,40.779Zm19.314,10.1a18.47,18.47,0,0,0,3.223-6.649l7.564-24.111q0.252-.761-0.61-0.761h-2.335a0.778,0.778,0,0,0-.812.711l-6.548,20.913h-0.2L133.46,20.068a0.848,0.848,0,0,0-.863-0.711h-2.436c-0.475,0-.643.237-0.508,0.711l7.462,23.1a0.9,0.9,0,0,0,.863.711h1.472a14.967,14.967,0,0,1-1.929,4.213q-1.32,1.827-4.568,1.827h-1.269a0.628,0.628,0,0,0-.711.711V52.5a0.628,0.628,0,0,0,.711.711h2.233A7.151,7.151,0,0,0,139.729,50.88Zm50.329-37.867-8.325,21.015h-0.254l-8.325-21.015a0.591,0.591,0,0,0-.609-0.406h-4.111a0.628,0.628,0,0,0-.711.711V44.535a0.628,0.628,0,0,0,.711.711h2.233a0.607,0.607,0,0,0,.66-0.711v-27h0.2l8.02,19.949a0.836,0.836,0,0,0,.863.66h2.437a0.976,0.976,0,0,0,.913-0.66l7.868-19.9h0.2V44.535a0.628,0.628,0,0,0,.711.711h2.233a0.628,0.628,0,0,0,.711-0.711V13.317a0.628,0.628,0,0,0-.711-0.711h-4.111a0.543,0.543,0,0,0-.609.406h0Zm27.511,29.542h0.2v1.98a0.627,0.627,0,0,0,.71.711h2.284a0.628,0.628,0,0,0,.711-0.711V20.068a0.628,0.628,0,0,0-.711-0.711h-2.284a0.628,0.628,0,0,0-.71.711V37.327a4.669,4.669,0,0,1-1.219,3.452,4.739,4.739,0,0,1-3.5,1.218h-2.893q-4.215,0-4.214-4.416V20.068a0.628,0.628,0,0,0-.71-0.711h-2.284a0.628,0.628,0,0,0-.711.711V37.733a7.59,7.59,0,0,0,1.929,5.533,7.163,7.163,0,0,0,5.38,1.98h2.843q3.908,0,5.177-2.69h0Zm26.446-3.4a9.5,9.5,0,0,0-.939-4.619,6.6,6.6,0,0,0-3.578-2.69l-5.99-2.69q-2.893-1.116-2.893-3.249V25.043a2.239,2.239,0,0,1,.939-1.777,4.313,4.313,0,0,1,2.766-.761h7.665a0.607,0.607,0,0,0,.711-0.66V20.068a0.628,0.628,0,0,0-.711-0.711H233.66q-6.852,0-6.852,6.243a6.106,6.106,0,0,0,1.116,3.832,8.814,8.814,0,0,0,3.706,2.513l5.99,2.538a3.7,3.7,0,0,1,2.588,3.706v0.965q0,2.944-3.959,2.944h-8.528a0.606,0.606,0,0,0-.71.66v1.777a0.627,0.627,0,0,0,.71.711h9.036q7.258,0,7.258-6.091h0ZM250.36,15.8H252.7a0.628,0.628,0,0,0,.711-0.711V10.323a0.628,0.628,0,0,0-.711-0.711H250.36a0.606,0.606,0,0,0-.659.711v4.771a0.606,0.606,0,0,0,.659.711h0Zm0.051,29.441H252.7a0.628,0.628,0,0,0,.711-0.711V20.068a0.628,0.628,0,0,0-.711-0.711H250.36a0.606,0.606,0,0,0-.659.711V44.535a0.627,0.627,0,0,0,.71.711h0ZM274.522,42h-6.954q-4.213,0-4.213-4.416V27.023q0-4.416,4.213-4.416h6.954a0.607,0.607,0,0,0,.711-0.66V20.068a0.628,0.628,0,0,0-.711-0.711h-7.36a7.5,7.5,0,0,0-5.507,1.98,7.42,7.42,0,0,0-2,5.533V37.733a7.419,7.419,0,0,0,2,5.533,7.5,7.5,0,0,0,5.507,1.98h7.36a0.607,0.607,0,0,0,.711-0.66V42.707A0.628,0.628,0,0,0,274.522,42h0Z"/>
  <path id="M" class="cls-3" d="M34.876,15.27l-5.92,16.558H28.742L22.865,15.27a0.716,0.716,0,0,0-.687-0.472h-4.8a0.644,0.644,0,0,0-.729.729V41.651a0.644,0.644,0,0,0,.729.729h2.617a0.59,0.59,0,0,0,.729-0.729V19.946h0.172L26.6,35.688a0.918,0.918,0,0,0,.9.686h2.745a0.944,0.944,0,0,0,.944-0.686l5.576-15.7h0.172V41.651a0.644,0.644,0,0,0,.729.729h2.66a0.645,0.645,0,0,0,.729-0.729V15.527a0.645,0.645,0,0,0-.729-0.729h-4.8a0.563,0.563,0,0,0-.643.472h0Z"/>
</svg>
