<svg xmlns="http://www.w3.org/2000/svg" width="201" height="34" viewBox="0 0 201 34">
  <defs>
    <style>
      .cls-1 {
        fill: #ff6058;
        fill-rule: evenodd;
      }
    </style>
  </defs>
  <path id="Max_Settings" data-name="Max Settings" class="cls-1" d="M17.91,3.112l-6.457,16.3h-0.2L4.8,3.112A0.459,0.459,0,0,0,4.327,2.8H1.138a0.487,0.487,0,0,0-.551.551V27.561a0.487,0.487,0,0,0,.551.551H2.871a0.471,0.471,0,0,0,.512-0.551V6.616H3.54L9.76,22.088a0.648,0.648,0,0,0,.669.512h1.89a0.757,0.757,0,0,0,.709-0.512l6.1-15.433h0.157V27.561a0.487,0.487,0,0,0,.551.551h1.732a0.487,0.487,0,0,0,.551-0.551V3.348A0.487,0.487,0,0,0,21.571,2.8H18.382a0.422,0.422,0,0,0-.472.315h0ZM39.052,26.025h0.158v1.535a0.487,0.487,0,0,0,.551.551h1.772a0.487,0.487,0,0,0,.551-0.551V8.584a0.487,0.487,0,0,0-.551-0.551H32.989a5.814,5.814,0,0,0-4.272,1.535,5.757,5.757,0,0,0-1.555,4.291v8.425a5.757,5.757,0,0,0,1.555,4.291,5.815,5.815,0,0,0,4.272,1.535h2.047q3.031,0,4.016-2.087h0Zm-0.787-1.378a3.677,3.677,0,0,1-2.716.945H33.3q-3.268,0-3.268-3.425V13.978q0-3.425,3.268-3.425h5.512a0.332,0.332,0,0,1,.394.354V21.97A3.62,3.62,0,0,1,38.264,24.647ZM48.7,27.561L52.753,19.8H52.91l4.055,7.756a0.892,0.892,0,0,0,.748.551H60q0.629,0,.276-0.551l-5.59-9.724,5.157-9.252q0.393-.551-0.276-0.551H57.4a0.882,0.882,0,0,0-.827.551L52.91,16.025H52.753L48.894,8.584a0.938,0.938,0,0,0-.827-0.551h-2.2q-0.591,0-.276.551L50.9,17.876,45.39,27.561q-0.316.552,0.315,0.551h2.2a0.809,0.809,0,0,0,.787-0.551h0Zm26.142-1a5.784,5.784,0,0,0,4.252,1.555h4.528a5.786,5.786,0,0,0,4.252-1.555,5.732,5.732,0,0,0,1.575-4.272V20.513a5.854,5.854,0,0,0-.728-3.012,4.705,4.705,0,0,0-1.91-1.85,14.333,14.333,0,0,0-2.618-1.024,29.034,29.034,0,0,0-2.854-.669q-1.417-.256-2.6-0.571Q76.1,12.64,76.1,10.632V9.057q0-3.74,3.5-3.74h3.346q3.5,0,3.5,3.583V9.608a0.49,0.49,0,0,0,.512.591h1.811a0.49,0.49,0,0,0,.512-0.591V8.624a5.733,5.733,0,0,0-1.575-4.272A5.788,5.788,0,0,0,83.461,2.8h-4.37A5.773,5.773,0,0,0,74.82,4.352a5.771,5.771,0,0,0-1.555,4.272v1.929a4.985,4.985,0,0,0,1.378,3.72A6.988,6.988,0,0,0,77.989,16.1q1.968,0.472,3.937.827,4.685,0.867,4.685,3.7V21.97q0,3.623-3.5,3.622H79.642q-3.5,0-3.5-3.543V21.025a0.487,0.487,0,0,0-.551-0.551H73.816a0.487,0.487,0,0,0-.551.551v1.26A5.73,5.73,0,0,0,74.839,26.557ZM108.934,27.6V26.183a0.487,0.487,0,0,0-.551-0.551h-8.032q-3.307,0-3.307-3.425V19.8a0.332,0.332,0,0,1,.394-0.354h11.141a0.506,0.506,0,0,0,.552-0.59v-5A5.8,5.8,0,0,0,107.6,9.569a5.746,5.746,0,0,0-4.252-1.535h-3.307a5.815,5.815,0,0,0-4.272,1.535,5.758,5.758,0,0,0-1.555,4.291v8.425a5.757,5.757,0,0,0,1.555,4.291,5.815,5.815,0,0,0,4.272,1.535h8.347a0.471,0.471,0,0,0,.551-0.512h0ZM97.044,16.97V13.939q0-3.385,3.307-3.386h2.677q3.307,0,3.307,3.386V16.97a0.348,0.348,0,0,1-.393.394h-8.5a0.348,0.348,0,0,1-.394-0.394h0Zm17.677-6.063V22.364a5.523,5.523,0,0,0,1.614,4.232,6.07,6.07,0,0,0,4.331,1.516h1.89a0.49,0.49,0,0,0,.59-0.512V26.143a0.5,0.5,0,0,0-.59-0.551H121.02q-3.465,0-3.464-3.346V10.907a0.352,0.352,0,0,1,.433-0.354h4.173a0.49,0.49,0,0,0,.591-0.512V8.584a0.506,0.506,0,0,0-.591-0.551h-4.173a0.352,0.352,0,0,1-.433-0.354V4.293a0.471,0.471,0,0,0-.512-0.551h-1.772a0.487,0.487,0,0,0-.551.551V7.679a0.332,0.332,0,0,1-.394.354h-2.165a0.487,0.487,0,0,0-.551.551v1.457a0.47,0.47,0,0,0,.551.512h2.165a0.332,0.332,0,0,1,.394.354h0Zm13.347,0V22.364a5.519,5.519,0,0,0,1.614,4.232,6.068,6.068,0,0,0,4.331,1.516H135.9a0.49,0.49,0,0,0,.591-0.512V26.143a0.506,0.506,0,0,0-.591-0.551h-1.535q-3.465,0-3.465-3.346V10.907a0.352,0.352,0,0,1,.433-0.354h4.174a0.49,0.49,0,0,0,.59-0.512V8.584a0.505,0.505,0,0,0-.59-0.551h-4.174a0.352,0.352,0,0,1-.433-0.354V4.293a0.471,0.471,0,0,0-.512-0.551h-1.771a0.487,0.487,0,0,0-.551.551V7.679a0.332,0.332,0,0,1-.394.354h-2.165a0.488,0.488,0,0,0-.552.551v1.457a0.471,0.471,0,0,0,.552.512h2.165a0.332,0.332,0,0,1,.394.354h0Zm12.913-5.63h1.811a0.487,0.487,0,0,0,.551-0.551v-3.7a0.487,0.487,0,0,0-.551-0.551h-1.811a0.471,0.471,0,0,0-.512.551v3.7a0.471,0.471,0,0,0,.512.551h0Zm0.039,22.835h1.772a0.487,0.487,0,0,0,.551-0.551V8.584a0.487,0.487,0,0,0-.551-0.551h-1.811a0.471,0.471,0,0,0-.512.551V27.561a0.487,0.487,0,0,0,.551.551h0Zm10.433-.551V14.175A3.621,3.621,0,0,1,152.4,11.5a3.678,3.678,0,0,1,2.717-.945h2.2q3.306,0,3.307,3.425V27.561a0.487,0.487,0,0,0,.551.551h1.772a0.487,0.487,0,0,0,.551-0.551V13.86a5.893,5.893,0,0,0-1.5-4.291,5.56,5.56,0,0,0-4.174-1.535h-2.2q-3.033,0-4.016,2.087h-0.158V8.584a0.487,0.487,0,0,0-.551-0.551h-1.771a0.488,0.488,0,0,0-.552.551V27.561a0.487,0.487,0,0,0,.552.551H150.9a0.487,0.487,0,0,0,.551-0.551h0Zm28.5-2.6h0.158v3.032q0,3.386-3.307,3.386h-6.89a0.5,0.5,0,0,0-.59.551v1.457a0.5,0.5,0,0,0,.59.551h7.244a5.379,5.379,0,0,0,5.827-5.827V8.584a0.487,0.487,0,0,0-.551-0.551h-8.544a5.812,5.812,0,0,0-4.271,1.535,5.758,5.758,0,0,0-1.555,4.291v7.362a5.887,5.887,0,0,0,1.5,4.291,5.557,5.557,0,0,0,4.173,1.535h2.205q2.991,0,4.015-2.087h0Zm-0.787-1.378a3.676,3.676,0,0,1-2.716.945h-2.205q-3.307,0-3.307-3.425V13.978q0-3.425,3.307-3.425h5.472a0.332,0.332,0,0,1,.394.354v10A3.62,3.62,0,0,1,179.17,23.584Zm21.3-.2a7.377,7.377,0,0,0-.728-3.583,5.117,5.117,0,0,0-2.776-2.087l-4.645-2.087q-2.244-.865-2.244-2.52V12.443a1.737,1.737,0,0,1,.728-1.378,3.345,3.345,0,0,1,2.146-.591H198.9a0.471,0.471,0,0,0,.551-0.512V8.584a0.487,0.487,0,0,0-.551-0.551h-6.457q-5.316,0-5.315,4.843a4.731,4.731,0,0,0,.866,2.973,6.834,6.834,0,0,0,2.874,1.949l4.646,1.968a2.871,2.871,0,0,1,2.008,2.874v0.748q0,2.284-3.071,2.284h-6.615a0.471,0.471,0,0,0-.551.512v1.378a0.487,0.487,0,0,0,.551.551h7.008q5.63,0,5.63-4.724h0Z"/>
</svg>
