<svg xmlns="http://www.w3.org/2000/svg" width="690" height="57" viewBox="0 0 690 57">
  <defs>
    <style>
      .cls-1 {
        fill: #0e0f17;
        stroke: #328d93;
        stroke-width: 4px;
      }

      .cls-1, .cls-2 {
        fill-rule: evenodd;
      }

      .cls-2 {
        fill: #5ef5fe;
      }
    </style>
  </defs>
  <path id="Selected" class="cls-1" d="M2.208,2.143H687.291L687.4,54.856,2.208,54.912V2.143Z"/>
  <path id="Right" class="cls-2" d="M24.123,41.215V31.461a0.353,0.353,0,0,1,.419-0.377h5.526l4.689,10.131A1.12,1.12,0,0,0,35.8,41.8h1.884q0.795,0,.419-0.67L33.249,30.959V30.792a5.384,5.384,0,0,0,3.14-2.03,6.335,6.335,0,0,0,1.13-3.872V21.08a6.1,6.1,0,0,0-1.675-4.542,6.211,6.211,0,0,0-4.563-1.654H21.653a0.518,0.518,0,0,0-.586.586V41.215a0.518,0.518,0,0,0,.586.586h1.884a0.518,0.518,0,0,0,.586-0.586h0Zm0-13.061V17.94a0.353,0.353,0,0,1,.419-0.377h6.321q3.6,0,3.6,3.642v3.726q0,3.6-3.6,3.6H24.541a0.353,0.353,0,0,1-.419-0.377h0Zm19.34-10.633h1.926a0.518,0.518,0,0,0,.586-0.586V13a0.518,0.518,0,0,0-.586-0.586H43.463a0.5,0.5,0,0,0-.544.586v3.935a0.5,0.5,0,0,0,.544.586h0ZM43.5,41.8h1.884a0.518,0.518,0,0,0,.586-0.586V21.038a0.518,0.518,0,0,0-.586-0.586H43.463a0.5,0.5,0,0,0-.544.586V41.215a0.518,0.518,0,0,0,.586.586h0Zm20.387-3.349h0.167v3.223q0,3.6-3.516,3.6H53.217a0.537,0.537,0,0,0-.628.586v1.549a0.537,0.537,0,0,0,.628.586h7.7a5.719,5.719,0,0,0,6.2-6.2V21.038a0.518,0.518,0,0,0-.586-0.586H57.445A6.182,6.182,0,0,0,52.9,22.084a6.122,6.122,0,0,0-1.654,4.563v7.828a6.262,6.262,0,0,0,1.591,4.563,5.909,5.909,0,0,0,4.437,1.633h2.344q3.181,0,4.27-2.219h0Zm-0.837-1.465a3.91,3.91,0,0,1-2.888,1H57.822q-3.516,0-3.516-3.642V26.773q0-3.642,3.516-3.642H63.64a0.353,0.353,0,0,1,.419.377V34.141A3.849,3.849,0,0,1,63.054,36.987Zm12.475,4.228V26.982a3.85,3.85,0,0,1,1-2.847,3.91,3.91,0,0,1,2.888-1h2.344q3.516,0,3.516,3.642V41.215a0.518,0.518,0,0,0,.586.586h1.884a0.518,0.518,0,0,0,.586-0.586V26.647a6.265,6.265,0,0,0-1.591-4.563,5.91,5.91,0,0,0-4.437-1.633H79.967q-3.224,0-4.27,2.219H75.529V12.959a0.518,0.518,0,0,0-.586-0.586H73.059a0.518,0.518,0,0,0-.586.586V41.215a0.518,0.518,0,0,0,.586.586h1.884a0.518,0.518,0,0,0,.586-0.586h0ZM94.7,23.508V35.69a5.871,5.871,0,0,0,1.716,4.5,6.454,6.454,0,0,0,4.6,1.612h2.01a0.521,0.521,0,0,0,.627-0.544V39.708a0.537,0.537,0,0,0-.627-0.586H101.4q-3.684,0-3.684-3.558V23.508a0.374,0.374,0,0,1,.461-0.377h4.438a0.521,0.521,0,0,0,.628-0.544V21.038a0.537,0.537,0,0,0-.628-0.586H98.177a0.374,0.374,0,0,1-.461-0.377v-3.6a0.5,0.5,0,0,0-.544-0.586H95.288a0.518,0.518,0,0,0-.586.586v3.6a0.353,0.353,0,0,1-.419.377h-2.3a0.518,0.518,0,0,0-.586.586v1.549a0.5,0.5,0,0,0,.586.544h2.3a0.353,0.353,0,0,1,.419.377h0Z"/>
</svg>
