<svg xmlns="http://www.w3.org/2000/svg" width="369" height="117" viewBox="0 0 369 117">
  <defs>
    <style>
      .cls-1 {
        fill: #161017;
        opacity: 0.59;
      }

      .cls-2 {
        fill: none;
        stroke: #ff4a37;
        stroke-width: 2px;
      }

      .cls-2, .cls-3, .cls-4 {
        fill-rule: evenodd;
      }

      .cls-3 {
        fill: #5cf6ff;
      }

      .cls-4 {
        fill: #ab3a35;
      }
    </style>
  </defs>
  <rect class="cls-1" x="1" y="21" width="367" height="95"/>
  <path class="cls-2" d="M1,21H368v95H1V21Z"/>
  <path id="BREACHING..." class="cls-3" d="M39.8,81.967V69.007a0.505,0.505,0,0,1,.6-0.54h9.48q5.52,0,5.52,5.1v3.9q0,5.1-5.16,5.1H40.4a0.53,0.53,0,0,1-.6-0.6h0Zm0-17.7V52.027a0.53,0.53,0,0,1,.6-0.6h9.42q5.1,0,5.1,5.1v3.18q0,5.1-5.28,5.1H40.4a0.505,0.505,0,0,1-.6-0.54h0Zm-3.54,22.02h14.52a8.929,8.929,0,0,0,6.51-2.31,8.592,8.592,0,0,0,2.37-6.45v-4.02a7.02,7.02,0,0,0-1.62-4.83,5.662,5.662,0,0,0-3.9-2.01,6.582,6.582,0,0,0,5.04-6.9v-3.3a8.655,8.655,0,0,0-2.34-6.45,8.826,8.826,0,0,0-6.48-2.31h-14.1a0.742,0.742,0,0,0-.84.84v36.9a0.742,0.742,0,0,0,.84.84h0Zm36.48-.84V71.467a0.505,0.505,0,0,1,.6-0.54h7.92l6.72,14.52a1.6,1.6,0,0,0,1.5.84h2.7q1.139,0,.6-0.96l-6.96-14.58v-0.24a7.717,7.717,0,0,0,4.5-2.91,9.082,9.082,0,0,0,1.62-5.55v-5.46a8.738,8.738,0,0,0-2.4-6.51A8.9,8.9,0,0,0,83,47.707H69.2a0.742,0.742,0,0,0-.84.84v36.9a0.742,0.742,0,0,0,.84.84h2.7a0.742,0.742,0,0,0,.84-0.84h0Zm0-18.72V52.087a0.505,0.505,0,0,1,.6-0.54H82.4q5.16,0,5.16,5.22v5.34q0,5.161-5.16,5.16h-9.06a0.505,0.505,0,0,1-.6-0.54h0Zm48.36,18.72v-2.16a0.743,0.743,0,0,0-.84-0.84h-14.7a0.505,0.505,0,0,1-.6-0.54V69.127a0.505,0.505,0,0,1,.6-0.54H118.4a0.743,0.743,0,0,0,.84-0.84v-2.16a0.743,0.743,0,0,0-.84-0.84h-12.84a0.505,0.505,0,0,1-.6-0.54V52.087a0.505,0.505,0,0,1,.6-0.54h14.7a0.743,0.743,0,0,0,.84-0.84v-2.16a0.743,0.743,0,0,0-.84-0.84h-18.84a0.742,0.742,0,0,0-.84.84v36.9a0.742,0.742,0,0,0,.84.84h18.84a0.743,0.743,0,0,0,.84-0.84h0Zm9.66,0,2.82-8.76H148.1l2.82,8.76a0.865,0.865,0,0,0,.84.84h3.06q0.779,0,.54-0.84l-11.22-36.9a1.073,1.073,0,0,0-1.14-.84h-4.32a1.072,1.072,0,0,0-1.14.84l-11.22,36.9q-0.242.841,0.54,0.84h3a0.947,0.947,0,0,0,.9-0.84h0Zm10.2-33.24,6.18,20.76h-12.6l6.18-20.76h0.24Zm42.81,31.74a8.78,8.78,0,0,0,2.37-6.54v-2.94a0.743,0.743,0,0,0-.84-0.84h-2.7a0.742,0.742,0,0,0-.84.84v2.76q0,5.22-5.04,5.22h-6.18q-4.981,0-4.98-5.22V56.767q0-5.22,4.98-5.22h6.18q5.04,0,5.04,5.22v2.76a0.742,0.742,0,0,0,.84.84h2.7a0.743,0.743,0,0,0,.84-0.84v-2.94a8.16,8.16,0,0,0-8.88-8.88h-7.2a8.16,8.16,0,0,0-8.88,8.88v20.82a8.772,8.772,0,0,0,2.37,6.54,8.86,8.86,0,0,0,6.51,2.34h7.2A8.864,8.864,0,0,0,183.771,83.947Zm14.85,1.5v-16.2a0.505,0.505,0,0,1,.6-0.54H214.1a0.506,0.506,0,0,1,.6.54v16.2a0.742,0.742,0,0,0,.84.84h2.7a0.743,0.743,0,0,0,.84-0.84v-36.9a0.743,0.743,0,0,0-.84-0.84h-2.7a0.742,0.742,0,0,0-.84.84v15.78a0.506,0.506,0,0,1-.6.54h-14.88a0.505,0.505,0,0,1-.6-0.54V48.547a0.743,0.743,0,0,0-.84-0.84h-2.7a0.742,0.742,0,0,0-.84.84v36.9a0.742,0.742,0,0,0,.84.84h2.7a0.743,0.743,0,0,0,.84-0.84h0Zm33.78-37.74h-2.7a0.742,0.742,0,0,0-.84.84v36.9a0.742,0.742,0,0,0,.84.84h2.7a0.743,0.743,0,0,0,.84-0.84v-36.9a0.743,0.743,0,0,0-.84-0.84h0Zm14.94,37.74V56.707h0.24l16.5,28.8a1.643,1.643,0,0,0,1.26.78h2.22a0.743,0.743,0,0,0,.84-0.84v-36.9a0.743,0.743,0,0,0-.84-0.84h-2.64a0.742,0.742,0,0,0-.84.84v28.74h-0.24l-16.56-29.1a0.969,0.969,0,0,0-.96-0.48h-2.46a0.742,0.742,0,0,0-.84.84v36.9a0.742,0.742,0,0,0,.84.84h2.64a0.743,0.743,0,0,0,.84-0.84h0Zm51.78-1.5a8.84,8.84,0,0,0,2.34-6.54V67.327a1.088,1.088,0,0,0-1.2-1.26H290.6a0.742,0.742,0,0,0-.84.84v2.22a0.717,0.717,0,0,0,.84.78h5.94a0.506,0.506,0,0,1,.54.6v6.72q0,5.22-4.98,5.22h-5.46q-4.982,0-4.98-5.22V56.767q0-5.22,4.98-5.22h5.46q4.979,0,4.98,5.22v2.28a0.77,0.77,0,0,0,.84.9h2.7a0.77,0.77,0,0,0,.84-0.9v-2.46a8.863,8.863,0,0,0-2.34-6.51,8.7,8.7,0,0,0-6.48-2.37h-6.48a8.16,8.16,0,0,0-8.88,8.88v20.82a8.772,8.772,0,0,0,2.37,6.54,8.86,8.86,0,0,0,6.51,2.34h6.48A8.758,8.758,0,0,0,299.121,83.947Zm15.06-6.54h-3.06a0.689,0.689,0,0,0-.78.78v7.26a0.717,0.717,0,0,0,.78.84h3.06a0.717,0.717,0,0,0,.78-0.84v-7.26a0.69,0.69,0,0,0-.78-0.78h0Zm11.64,0h-3.06a0.689,0.689,0,0,0-.78.78v7.26a0.717,0.717,0,0,0,.78.84h3.06a0.717,0.717,0,0,0,.78-0.84v-7.26a0.69,0.69,0,0,0-.78-0.78h0Zm11.64,0H334.4a0.689,0.689,0,0,0-.78.78v7.26a0.717,0.717,0,0,0,.78.84h3.06a0.717,0.717,0,0,0,.78-0.84v-7.26a0.69,0.69,0,0,0-.78-0.78h0Z"/>
  <path id="MODEL_LINE_1.2001A_" data-name="MODEL LINE       1.2001A " class="cls-4" d="M10.494,1l-3.28,8.86h-0.1L3.834,1A0.234,0.234,0,0,0,3.594.833H1.974a0.256,0.256,0,0,0-.28.3V14.294a0.256,0.256,0,0,0,.28.3h0.88a0.249,0.249,0,0,0,.26-0.3V2.909h0.08l3.16,8.41a0.334,0.334,0,0,0,.34.278h0.96a0.387,0.387,0,0,0,.36-0.278l3.1-8.389h0.08V14.294a0.256,0.256,0,0,0,.28.3h0.88a0.256,0.256,0,0,0,.28-0.3V1.133a0.257,0.257,0,0,0-.28-0.3h-1.62a0.216,0.216,0,0,0-.24.171h0Zm8.16,10.358v-7.3q0-1.862,1.66-1.862h2.04a1.57,1.57,0,0,1,1.68,1.862v7.3a1.57,1.57,0,0,1-1.68,1.862h-2.04q-1.66,0-1.66-1.862h0Zm6.05,2.386a3.266,3.266,0,0,0,.79-2.322V4a3.267,3.267,0,0,0-.79-2.322,2.825,2.825,0,0,0-2.17-.845h-2.38a2.845,2.845,0,0,0-2.17.835A3.258,3.258,0,0,0,17.194,4v7.426a3.257,3.257,0,0,0,.79,2.333,2.844,2.844,0,0,0,2.17.835h2.38A2.824,2.824,0,0,0,24.7,13.748Zm6.81-.717V2.4a0.174,0.174,0,0,1,.2-0.193h3.36a1.57,1.57,0,0,1,1.68,1.862v7.3a1.57,1.57,0,0,1-1.68,1.862h-3.36a0.174,0.174,0,0,1-.2-0.193h0Zm-1.18,1.562h4.92a2.824,2.824,0,0,0,2.17-.845,3.266,3.266,0,0,0,.79-2.322V4a3.267,3.267,0,0,0-.79-2.322,2.826,2.826,0,0,0-2.17-.845h-4.92a0.257,0.257,0,0,0-.28.3V14.294a0.256,0.256,0,0,0,.28.3h0Zm19.28-.3v-0.77a0.257,0.257,0,0,0-.28-0.3h-4.9a0.173,0.173,0,0,1-.2-0.193V8.473a0.174,0.174,0,0,1,.2-0.193h4.28a0.256,0.256,0,0,0,.28-0.3V7.211a0.257,0.257,0,0,0-.28-0.3h-4.28a0.174,0.174,0,0,1-.2-0.193V2.4a0.174,0.174,0,0,1,.2-0.193h4.9a0.256,0.256,0,0,0,.28-0.3V1.133a0.256,0.256,0,0,0-.28-0.3h-6.28a0.256,0.256,0,0,0-.28.3V14.294a0.256,0.256,0,0,0,.28.3h6.28a0.256,0.256,0,0,0,.28-0.3h0Zm11.34,0V13.5a0.267,0.267,0,0,0-.28-0.321h-5.04a0.174,0.174,0,0,1-.2-0.193V1.133a0.256,0.256,0,0,0-.28-0.3h-0.9a0.256,0.256,0,0,0-.28.3V14.294a0.256,0.256,0,0,0,.28.3h6.42a0.256,0.256,0,0,0,.28-0.3h0Zm17.3,0V13.5a0.267,0.267,0,0,0-.28-0.321h-5.04a0.174,0.174,0,0,1-.2-0.193V1.133a0.257,0.257,0,0,0-.28-0.3h-0.9a0.257,0.257,0,0,0-.28.3V14.294a0.256,0.256,0,0,0,.28.3h6.42a0.256,0.256,0,0,0,.28-0.3h0Zm4.92-13.461h-0.9a0.256,0.256,0,0,0-.28.3V14.294a0.256,0.256,0,0,0,.28.3h0.9a0.256,0.256,0,0,0,.28-0.3V1.133a0.256,0.256,0,0,0-.28-0.3h0Zm6.58,13.461V4.043h0.08l5.5,10.272a0.544,0.544,0,0,0,.42.278h0.74a0.257,0.257,0,0,0,.28-0.3V1.133a0.257,0.257,0,0,0-.28-0.3h-0.88a0.257,0.257,0,0,0-.28.3V11.384h-0.08L89.734,1a0.318,0.318,0,0,0-.32-0.171h-0.82a0.256,0.256,0,0,0-.28.3V14.294a0.256,0.256,0,0,0,.28.3h0.88a0.256,0.256,0,0,0,.28-0.3h0Zm18.62,0v-0.77a0.257,0.257,0,0,0-.281-0.3h-4.9a0.173,0.173,0,0,1-.2-0.193V8.473a0.173,0.173,0,0,1,.2-0.193h4.28a0.257,0.257,0,0,0,.28-0.3V7.211a0.257,0.257,0,0,0-.28-0.3h-4.28a0.173,0.173,0,0,1-.2-0.193V2.4a0.173,0.173,0,0,1,.2-0.193h4.9a0.257,0.257,0,0,0,.281-0.3V1.133a0.257,0.257,0,0,0-.281-0.3h-6.279a0.256,0.256,0,0,0-.28.3V14.294a0.256,0.256,0,0,0,.28.3h6.279a0.257,0.257,0,0,0,.281-0.3h0Zm52.56-10.336L163.313,2.5V14.294a0.257,0.257,0,0,0,.281.3h0.9a0.257,0.257,0,0,0,.281-0.3V1.133a0.257,0.257,0,0,0-.281-0.3h-0.839a1.093,1.093,0,0,0-.52.193l-2.32,1.434a0.515,0.515,0,0,0-.24.471V3.787q0,0.385.36,0.171h0Zm9.48,7.469h-1.02a0.239,0.239,0,0,0-.261.278v2.589a0.249,0.249,0,0,0,.261.3h1.02a0.249,0.249,0,0,0,.26-0.3V11.7a0.238,0.238,0,0,0-.26-0.278h0Zm3.64,3.167h6.879a0.257,0.257,0,0,0,.281-0.3V13.5a0.257,0.257,0,0,0-.281-0.3h-5.58V12.218a1.706,1.706,0,0,1,.661-1.348l3.92-3.317a3.394,3.394,0,0,0,1.239-2.718V3.958a3.209,3.209,0,0,0-.78-2.3,2.829,2.829,0,0,0-2.159-.824h-1.6a2.836,2.836,0,0,0-2.161.824,3.218,3.218,0,0,0-.78,2.3v0.9a0.261,0.261,0,0,0,.261.321h0.9a0.267,0.267,0,0,0,.28-0.321V3.979a1.549,1.549,0,0,1,1.68-1.819h1.219a1.566,1.566,0,0,1,1.72,1.819V4.75a2.5,2.5,0,0,1-1,2.012l-3.86,3.253a2.912,2.912,0,0,0-1.121,2.354v1.926a0.257,0.257,0,0,0,.281.3h0Zm12.539-3.231v-7.3q0-1.862,1.66-1.862h1.64a1.571,1.571,0,0,1,1.681,1.862v7.3a1.571,1.571,0,0,1-1.681,1.862h-1.64q-1.659,0-1.66-1.862h0Zm5.631,2.4a3.261,3.261,0,0,0,.79-2.333V4a3.27,3.27,0,0,0-.79-2.322,2.8,2.8,0,0,0-2.151-.845h-2a2.8,2.8,0,0,0-2.15.845A3.265,3.265,0,0,0,185.134,4v7.426a3.257,3.257,0,0,0,.79,2.333,2.817,2.817,0,0,0,2.15.835h2A2.821,2.821,0,0,0,192.224,13.759Zm6.37-2.4v-7.3q0-1.862,1.66-1.862h1.64a1.57,1.57,0,0,1,1.68,1.862v7.3a1.57,1.57,0,0,1-1.68,1.862h-1.64q-1.66,0-1.66-1.862h0Zm5.629,2.4a3.257,3.257,0,0,0,.79-2.333V4a3.265,3.265,0,0,0-.79-2.322,2.8,2.8,0,0,0-2.149-.845h-2a2.8,2.8,0,0,0-2.151.845A3.27,3.27,0,0,0,197.133,4v7.426a3.261,3.261,0,0,0,.79,2.333,2.821,2.821,0,0,0,2.151.835h2A2.816,2.816,0,0,0,204.223,13.759Zm4.671-9.8,2.38-1.455V14.294a0.256,0.256,0,0,0,.28.3h0.9a0.257,0.257,0,0,0,.28-0.3V1.133a0.257,0.257,0,0,0-.28-0.3h-0.841a1.093,1.093,0,0,0-.519.193L208.773,2.46a0.516,0.516,0,0,0-.239.471V3.787q0,0.385.36,0.171h0Zm9.06,10.336,0.94-3.124h4.839l0.94,3.124a0.3,0.3,0,0,0,.281.3h1.02q0.26,0,.18-0.3l-3.74-13.161a0.363,0.363,0,0,0-.38-0.3h-1.441a0.361,0.361,0,0,0-.379.3l-3.74,13.161q-0.081.3,0.179,0.3h1a0.325,0.325,0,0,0,.3-0.3h0Zm3.4-11.856,2.059,7.4h-4.2l2.06-7.4h0.08Z"/>
</svg>
