<svg xmlns="http://www.w3.org/2000/svg" width="613" height="118" viewBox="0 0 613 118">
  <defs>
    <style>
      .cls-1 {
        fill: #161017;
        opacity: 0.59;
      }

      .cls-2 {
        fill: #ff6158;
      }

      .cls-2, .cls-3, .cls-4, .cls-5, .cls-6 {
        fill-rule: evenodd;
      }

      .cls-3, .cls-4 {
        fill: none;
      }

      .cls-3 {
        stroke: #ff5c5f;
        stroke-width: 2px;
      }

      .cls-4 {
        stroke: #5cf6ff;
        stroke-linecap: round;
        stroke-width: 3.5px;
      }

      .cls-5 {
        fill: #5cf6ff;
      }

      .cls-6 {
        fill: #a03932;
      }
    </style>
  </defs>
  <rect class="cls-1" x="1" y="22" width="611" height="95"/>
  <path id="PRESS_TO_CONTINUE" data-name="PRESS      TO CONTINUE" class="cls-2" d="M39.863,87.955V74.749a0.522,0.522,0,0,1,.62-0.558h10.23a9.049,9.049,0,0,0,6.7-2.418,9.136,9.136,0,0,0,2.418-6.758V58.133a9.159,9.159,0,0,0-2.418-6.727,8.985,8.985,0,0,0-6.7-2.449H36.2a0.767,0.767,0,0,0-.868.868v38.13a0.767,0.767,0,0,0,.868.868h2.79a0.767,0.767,0,0,0,.868-0.868h0Zm0-18.352V53.483a0.522,0.522,0,0,1,.62-0.558h9.61q5.208,0,5.208,5.394v6.51q0,5.333-5.208,5.332h-9.61a0.522,0.522,0,0,1-.62-0.558h0ZM71.235,87.955V73.509a0.522,0.522,0,0,1,.62-0.558h8.184l6.944,15a1.658,1.658,0,0,0,1.55.868h2.79q1.177,0,.62-0.992L84.751,72.765V72.517A7.974,7.974,0,0,0,89.4,69.51a9.385,9.385,0,0,0,1.674-5.735V58.133a9.029,9.029,0,0,0-2.48-6.727,9.2,9.2,0,0,0-6.758-2.449H67.577a0.767,0.767,0,0,0-.868.868v38.13a0.767,0.767,0,0,0,.868.868h2.79a0.767,0.767,0,0,0,.868-0.868h0Zm0-19.344V53.483a0.522,0.522,0,0,1,.62-0.558h9.362q5.332,0,5.332,5.394v5.518q0,5.333-5.332,5.332H71.855a0.522,0.522,0,0,1-.62-0.558h0Zm48.733,19.344V85.723a0.768,0.768,0,0,0-.868-0.868h-15.19a0.522,0.522,0,0,1-.62-0.558V71.091a0.522,0.522,0,0,1,.62-0.558h13.268a0.767,0.767,0,0,0,.868-0.868V67.433a0.768,0.768,0,0,0-.868-0.868H103.909a0.522,0.522,0,0,1-.62-0.558V53.483a0.522,0.522,0,0,1,.62-0.558H119.1a0.767,0.767,0,0,0,.868-0.868V49.825a0.768,0.768,0,0,0-.868-0.868H99.631a0.767,0.767,0,0,0-.868.868v38.13a0.767,0.767,0,0,0,.868.868H119.1a0.767,0.767,0,0,0,.868-0.868h0Zm9.362-1.581a9.106,9.106,0,0,0,6.7,2.449h7.129a8.511,8.511,0,0,0,9.177-9.176v-2.79a9.221,9.221,0,0,0-1.147-4.743,7.407,7.407,0,0,0-3.007-2.914,22.575,22.575,0,0,0-4.123-1.612,45.836,45.836,0,0,0-4.5-1.054q-2.232-.4-4.092-0.9-4.155-1.177-4.154-4.34v-2.48q0-5.89,5.517-5.89h5.27q5.518,0,5.519,5.642v1.116a0.772,0.772,0,0,0,.805.93h2.853a0.773,0.773,0,0,0,.806-0.93v-1.55a8.511,8.511,0,0,0-9.176-9.176h-6.882a8.471,8.471,0,0,0-9.176,9.176v3.038a7.848,7.848,0,0,0,2.17,5.859,11,11,0,0,0,5.27,2.883q3.1,0.744,6.2,1.3,7.377,1.365,7.378,5.828v2.108q0,5.7-5.518,5.7h-5.456q-5.52,0-5.518-5.58V77.663a0.768,0.768,0,0,0-.868-0.868h-2.79a0.767,0.767,0,0,0-.868.868v1.984A9.023,9.023,0,0,0,129.329,86.374Zm33.17,0a9.105,9.105,0,0,0,6.695,2.449h7.131a8.511,8.511,0,0,0,9.176-9.176v-2.79a9.221,9.221,0,0,0-1.147-4.743,7.419,7.419,0,0,0-3.007-2.914,22.575,22.575,0,0,0-4.123-1.612,45.769,45.769,0,0,0-4.495-1.054q-2.232-.4-4.092-0.9-4.155-1.177-4.154-4.34v-2.48q0-5.89,5.518-5.89h5.27q5.517,0,5.517,5.642v1.116a0.772,0.772,0,0,0,.807.93h2.852a0.773,0.773,0,0,0,.806-0.93v-1.55a8.511,8.511,0,0,0-9.176-9.176h-6.883a8.472,8.472,0,0,0-9.176,9.176v3.038a7.848,7.848,0,0,0,2.171,5.859,11,11,0,0,0,5.27,2.883q3.1,0.744,6.2,1.3,7.377,1.365,7.378,5.828v2.108q0,5.7-5.519,5.7h-5.455q-5.52,0-5.518-5.58V77.663a0.768,0.768,0,0,0-.868-0.868h-2.79a0.767,0.767,0,0,0-.869.868v1.984A9.023,9.023,0,0,0,162.5,86.374Zm125.054,1.581V53.483a0.522,0.522,0,0,1,.62-0.558h8.432a0.8,0.8,0,0,0,.93-0.868V49.825a0.8,0.8,0,0,0-.93-0.868h-22.63a0.8,0.8,0,0,0-.93.868v2.232a0.8,0.8,0,0,0,.93.868h8.432a0.523,0.523,0,0,1,.62.558V87.955a0.766,0.766,0,0,0,.867.868h2.791a0.767,0.767,0,0,0,.868-0.868h0Zm18.538-8.494V58.319q0-5.394,5.146-5.394h6.324q5.208,0,5.208,5.394V79.461q0,5.394-5.208,5.394h-6.324q-5.148,0-5.146-5.394h0Zm18.755,6.913a9.093,9.093,0,0,0,2.449-6.727V58.133a8.471,8.471,0,0,0-9.176-9.176h-7.378a9.156,9.156,0,0,0-6.727,2.418,9.064,9.064,0,0,0-2.449,6.758V79.647a9.063,9.063,0,0,0,2.449,6.758,9.157,9.157,0,0,0,6.727,2.418h7.378A9.09,9.09,0,0,0,324.846,86.374ZM373.7,86.4a9.07,9.07,0,0,0,2.448-6.758V76.609a0.767,0.767,0,0,0-.867-0.868h-2.79a0.767,0.767,0,0,0-.868.868v2.852q0,5.394-5.208,5.394h-6.386q-5.148,0-5.146-5.394V58.319q0-5.394,5.146-5.394h6.386q5.208,0,5.208,5.394v2.852a0.766,0.766,0,0,0,.868.868h2.79a0.766,0.766,0,0,0,.867-0.868V58.133a8.431,8.431,0,0,0-9.176-9.176h-7.439a9.156,9.156,0,0,0-6.727,2.418,9.064,9.064,0,0,0-2.449,6.758V79.647a9.063,9.063,0,0,0,2.449,6.758,9.157,9.157,0,0,0,6.727,2.418h7.439A9.162,9.162,0,0,0,373.7,86.4Zm12.244-6.944V58.319q0-5.394,5.147-5.394h6.324q5.208,0,5.208,5.394V79.461q0,5.394-5.208,5.394h-6.324q-5.148,0-5.147-5.394h0ZM404.7,86.374a9.092,9.092,0,0,0,2.448-6.727V58.133a8.47,8.47,0,0,0-9.176-9.176H390.6a8.433,8.433,0,0,0-9.177,9.176V79.647a9.063,9.063,0,0,0,2.45,6.758,9.155,9.155,0,0,0,6.727,2.418h7.377A9.092,9.092,0,0,0,404.7,86.374Zm14.849,1.581v-29.7H419.8l17.051,29.76a1.7,1.7,0,0,0,1.3.806h2.294a0.767,0.767,0,0,0,.868-0.868V49.825a0.768,0.768,0,0,0-.868-0.868h-2.728a0.767,0.767,0,0,0-.868.868v29.7H436.6l-17.112-30.07a1,1,0,0,0-.992-0.5h-2.542a0.767,0.767,0,0,0-.868.868v38.13a0.766,0.766,0,0,0,.868.868h2.728a0.767,0.767,0,0,0,.868-0.868h0Zm40.92,0V53.483a0.522,0.522,0,0,1,.62-0.558h8.432a0.8,0.8,0,0,0,.93-0.868V49.825a0.8,0.8,0,0,0-.93-0.868H446.892a0.8,0.8,0,0,0-.929.868v2.232a0.8,0.8,0,0,0,.929.868h8.432a0.523,0.523,0,0,1,.621.558V87.955a0.766,0.766,0,0,0,.868.868h2.79a0.767,0.767,0,0,0,.868-0.868h0Zm19.839-39h-2.789a0.767,0.767,0,0,0-.868.868v38.13a0.766,0.766,0,0,0,.868.868h2.789a0.767,0.767,0,0,0,.869-0.868V49.825a0.768,0.768,0,0,0-.869-0.868h0Zm14.2,39v-29.7h0.247l17.051,29.76a1.7,1.7,0,0,0,1.3.806H515.4a0.767,0.767,0,0,0,.868-0.868V49.825a0.768,0.768,0,0,0-.868-0.868h-2.729a0.767,0.767,0,0,0-.867.868v29.7h-0.248l-17.113-30.07a1,1,0,0,0-.991-0.5h-2.542a0.767,0.767,0,0,0-.868.868v38.13a0.766,0.766,0,0,0,.868.868h2.728a0.767,0.767,0,0,0,.868-0.868h0Zm50.716-38.13V79.461q0,5.394-5.208,5.394h-5.828q-5.148,0-5.146-5.394V49.825a0.768,0.768,0,0,0-.869-0.868h-2.789a0.767,0.767,0,0,0-.868.868V79.647a9.063,9.063,0,0,0,2.449,6.758,9.157,9.157,0,0,0,6.727,2.418h6.882a8.386,8.386,0,0,0,9.114-9.176V49.763a0.742,0.742,0,0,0-.868-0.806h-2.79a0.741,0.741,0,0,0-.806.868h0Zm35.154,38.13V85.723a0.768,0.768,0,0,0-.869-0.868H564.321A0.523,0.523,0,0,1,563.7,84.3V71.091a0.523,0.523,0,0,1,.621-0.558h13.268a0.767,0.767,0,0,0,.867-0.868V67.433a0.767,0.767,0,0,0-.867-0.868H564.321a0.523,0.523,0,0,1-.621-0.558V53.483a0.523,0.523,0,0,1,.621-0.558H579.51a0.767,0.767,0,0,0,.869-0.868V49.825a0.768,0.768,0,0,0-.869-0.868H560.043a0.768,0.768,0,0,0-.869.868v38.13a0.767,0.767,0,0,0,.869.868H579.51a0.767,0.767,0,0,0,.869-0.868h0Z"/>
  <path class="cls-3" d="M1,22H612v95H1V22Z"/>
  <path class="cls-4" d="M207,43h47a4,4,0,0,1,4,4V93a4,4,0,0,1-4,4H207a4,4,0,0,1-4-4V47A4,4,0,0,1,207,43Z"/>
  <path class="cls-5" d="M212,67v4a2.7,2.7,0,0,0,3,3c-0.006-.109,31,0,31,0a3.063,3.063,0,0,0,3-3c0.051-.224,0-4,0-4h3v7s-0.049,2.9-4,3c-0.087.006-35,0-35,0s-4.034.613-4-3c0.064-.079,0-7,0-7h3Z"/>
  <path id="MODEL_LINE_1.2001A" data-name="MODEL LINE         1.2001A" class="cls-6" d="M10.653,0.82L7.045,10.657H6.935L3.327,0.82A0.258,0.258,0,0,0,3.063.63H1.281A0.284,0.284,0,0,0,.973.963V15.575a0.283,0.283,0,0,0,.308.333H2.249a0.275,0.275,0,0,0,.286-0.333V2.935H2.623L6.1,12.273a0.368,0.368,0,0,0,.374.309H7.529a0.426,0.426,0,0,0,.4-0.309l3.41-9.314h0.088V15.575a0.283,0.283,0,0,0,.308.333H12.7a0.284,0.284,0,0,0,.308-0.333V0.963A0.284,0.284,0,0,0,12.7.63H10.917a0.238,0.238,0,0,0-.264.19h0Zm7.216,11.5v-8.1q0-2.067,1.826-2.067h2.244q1.848,0,1.848,2.067v8.1q0,2.067-1.848,2.067H19.7q-1.826,0-1.826-2.067h0Zm6.655,2.649a3.648,3.648,0,0,0,.869-2.578V4.147a3.649,3.649,0,0,0-.869-2.578A3.093,3.093,0,0,0,22.137.63H19.519a3.113,3.113,0,0,0-2.387.927,3.639,3.639,0,0,0-.869,2.59v8.245a3.638,3.638,0,0,0,.869,2.59,3.114,3.114,0,0,0,2.387.927h2.618A3.092,3.092,0,0,0,24.524,14.969Zm6.611-.8V2.365a0.192,0.192,0,0,1,.22-0.214h3.7q1.848,0,1.848,2.067v8.1q0,2.067-1.848,2.067h-3.7a0.192,0.192,0,0,1-.22-0.214h0Zm-1.3,1.735h5.412a3.092,3.092,0,0,0,2.387-.938,3.648,3.648,0,0,0,.869-2.578V4.147a3.648,3.648,0,0,0-.869-2.578A3.093,3.093,0,0,0,35.249.63H29.837a0.284,0.284,0,0,0-.308.333V15.575a0.283,0.283,0,0,0,.308.333h0Zm19.888-.333V14.72a0.284,0.284,0,0,0-.308-0.333h-5.39a0.192,0.192,0,0,1-.22-0.214V9.112a0.192,0.192,0,0,1,.22-0.214h4.708a0.284,0.284,0,0,0,.308-0.333V7.711a0.284,0.284,0,0,0-.308-0.333H44.027a0.192,0.192,0,0,1-.22-0.214v-4.8a0.192,0.192,0,0,1,.22-0.214h5.39a0.284,0.284,0,0,0,.308-0.333V0.963A0.284,0.284,0,0,0,49.417.63H42.509A0.284,0.284,0,0,0,42.2.963V15.575a0.283,0.283,0,0,0,.308.333h6.908a0.284,0.284,0,0,0,.308-0.333h0Zm11.154,0V14.7a0.3,0.3,0,0,0-.308-0.356H55.027a0.192,0.192,0,0,1-.22-0.214V0.963A0.284,0.284,0,0,0,54.5.63h-0.99A0.284,0.284,0,0,0,53.2.963V15.575a0.283,0.283,0,0,0,.308.333h7.062a0.284,0.284,0,0,0,.308-0.333h0Zm16.83,0V14.7A0.3,0.3,0,0,0,77.4,14.34H71.857a0.192,0.192,0,0,1-.22-0.214V0.963A0.284,0.284,0,0,0,71.329.63h-0.99a0.284,0.284,0,0,0-.308.333V15.575a0.283,0.283,0,0,0,.308.333H77.4a0.284,0.284,0,0,0,.308-0.333h0ZM82.241,0.63h-0.99a0.284,0.284,0,0,0-.308.333V15.575a0.283,0.283,0,0,0,.308.333h0.99a0.284,0.284,0,0,0,.308-0.333V0.963A0.284,0.284,0,0,0,82.241.63h0Zm5.918,14.945V4.194h0.088L94.3,15.6a0.6,0.6,0,0,0,.462.309h0.814a0.284,0.284,0,0,0,.308-0.333V0.963A0.284,0.284,0,0,0,95.573.63H94.605A0.284,0.284,0,0,0,94.3.963V12.344H94.209L88.137,0.82A0.349,0.349,0,0,0,87.785.63h-0.9a0.284,0.284,0,0,0-.308.333V15.575a0.283,0.283,0,0,0,.308.333h0.968a0.284,0.284,0,0,0,.308-0.333h0Zm19.162,0V14.72a0.284,0.284,0,0,0-.308-0.333h-5.39a0.192,0.192,0,0,1-.22-0.214V9.112a0.192,0.192,0,0,1,.22-0.214h4.708a0.284,0.284,0,0,0,.308-0.333V7.711a0.284,0.284,0,0,0-.308-0.333h-4.708a0.192,0.192,0,0,1-.22-0.214v-4.8a0.192,0.192,0,0,1,.22-0.214h5.39a0.284,0.284,0,0,0,.308-0.333V0.963A0.284,0.284,0,0,0,107.013.63h-6.908A0.284,0.284,0,0,0,99.8.963V15.575a0.283,0.283,0,0,0,.308.333h6.908a0.284,0.284,0,0,0,.308-0.333h0ZM156.953,4.1l2.618-1.616V15.575a0.284,0.284,0,0,0,.308.333h0.99a0.284,0.284,0,0,0,.308-0.333V0.963A0.284,0.284,0,0,0,160.869.63h-0.924a1.2,1.2,0,0,0-.572.214l-2.552,1.592a0.573,0.573,0,0,0-.264.523v0.95q0,0.428.4,0.19h0Zm8.668,8.292H164.5a0.263,0.263,0,0,0-.286.309v2.875a0.275,0.275,0,0,0,.286.333h1.122a0.275,0.275,0,0,0,.286-0.333V12.7a0.263,0.263,0,0,0-.286-0.309h0Zm3.124,3.517h7.568a0.284,0.284,0,0,0,.308-0.333V14.7a0.284,0.284,0,0,0-.308-0.333h-6.138V13.271a1.9,1.9,0,0,1,.726-1.5l4.312-3.683a3.782,3.782,0,0,0,1.364-3.018V4.1a3.588,3.588,0,0,0-.858-2.554A3.1,3.1,0,0,0,173.343.63h-1.76a3.1,3.1,0,0,0-2.376.915,3.588,3.588,0,0,0-.858,2.554v1a0.288,0.288,0,0,0,.286.356h0.99a0.3,0.3,0,0,0,.308-0.356V4.123q0-2.019,1.848-2.02h1.342a1.731,1.731,0,0,1,1.892,2.02V4.978a2.782,2.782,0,0,1-1.1,2.233l-4.246,3.612a3.246,3.246,0,0,0-1.232,2.614v2.138a0.284,0.284,0,0,0,.308.333h0Zm12.914-3.588v-8.1q0-2.067,1.826-2.067h1.8q1.848,0,1.848,2.067v8.1q0,2.067-1.848,2.067h-1.8q-1.826,0-1.826-2.067h0Zm6.193,2.661a3.64,3.64,0,0,0,.869-2.59V4.147a3.649,3.649,0,0,0-.869-2.578A3.066,3.066,0,0,0,185.487.63h-2.2a3.066,3.066,0,0,0-2.365.939,3.649,3.649,0,0,0-.869,2.578v8.245a3.64,3.64,0,0,0,.869,2.59,3.086,3.086,0,0,0,2.365.927h2.2A3.086,3.086,0,0,0,187.852,14.981Zm6.567-2.661v-8.1q0-2.067,1.826-2.067h1.8q1.848,0,1.848,2.067v8.1q0,2.067-1.848,2.067h-1.8q-1.826,0-1.826-2.067h0Zm6.193,2.661a3.64,3.64,0,0,0,.869-2.59V4.147a3.649,3.649,0,0,0-.869-2.578A3.066,3.066,0,0,0,198.247.63h-2.2a3.066,3.066,0,0,0-2.365.939,3.649,3.649,0,0,0-.869,2.578v8.245a3.64,3.64,0,0,0,.869,2.59,3.086,3.086,0,0,0,2.365.927h2.2A3.086,3.086,0,0,0,200.612,14.981Zm4.7-10.882,2.618-1.616V15.575a0.284,0.284,0,0,0,.308.333h0.99a0.284,0.284,0,0,0,.308-0.333V0.963A0.284,0.284,0,0,0,209.225.63H208.3a1.2,1.2,0,0,0-.572.214l-2.552,1.592a0.573,0.573,0,0,0-.264.523v0.95q0,0.428.4,0.19h0ZM214.4,15.575l1.034-3.469h5.324l1.034,3.469a0.33,0.33,0,0,0,.308.333h1.122q0.286,0,.2-0.333L219.3,0.963A0.4,0.4,0,0,0,218.883.63H217.3a0.4,0.4,0,0,0-.418.333l-4.114,14.612q-0.089.333,0.2,0.333h1.1a0.358,0.358,0,0,0,.33-0.333h0Zm3.74-13.163,2.266,8.221h-4.62l2.266-8.221h0.088Z"/>
</svg>
